<?xml version="1.0" encoding="utf-8"?>
<!-- Generator: Adobe Illustrator 22.1.0, SVG Export Plug-In . SVG Version: 6.00 Build 0)  -->
<svg version="1.1" id="Americas" xmlns="http://www.w3.org/2000/svg" xmlns:xlink="http://www.w3.org/1999/xlink" x="0px" y="0px"
	 viewBox="0 0 1200 1120" style="enable-background:new 0 0 1200 1120;" xml:space="preserve">
<style type="text/css">
	.st0{fill:#FFFFFF;}
</style>
<g>
	<path class="st0" d="M669.8,312.9l13.7-8H700l-13.7,8C686.8,312.9,669.8,312.9,669.8,312.9z"/>
	<polygon class="st0" points="796.2,270.3 778.6,283.4 737.4,283.4 724.8,290.9 734.7,290.9 720.9,298.8 711,298.8 724.8,290.9 
		697.8,290.9 686.3,298.4 674.2,299.3 676.4,282 668.2,282 657.7,288.1 637.9,312.9 626.4,312.9 648.9,282 675.3,277.3 673.7,273.1 
		656.1,272.6 647.8,268.4 637.4,272.6 625.3,272.6 630.2,263.7 604.9,253.9 391.7,253.9 321.3,316.6 321.3,365.3 347.1,387.3 
		436.7,396.7 448.8,412.1 474.1,411.2 495,445.8 534,404.1 626.4,404.6 632.4,443.9 647.3,444.4 647.8,395.7 797.3,287.1 
		807.8,285.7 813.8,270.3 796.2,270.3 	"/>
	<polygon class="st0" points="884.7,263.3 937,263.3 926,248.8 916.1,246.9 916.1,236.1 	"/>
	<polygon class="st0" points="498.3,501 478,464 494.5,446.3 473.6,411.6 448.3,412.6 436.7,396.7 347.1,386.8 347.1,386.8 351,421 
		378.5,465.4 390,458 368,418.7 368,396.7 380.7,396.7 381.2,417.2 422.5,499.6 489.5,523.5 506.6,519.7 521.4,532.4 528.5,521.1 
		543.9,521.1 541.7,506.6 554.9,506.6 572,495.9 572.5,480 553.8,479.5 539,500.5 	"/>
	<polygon class="st0" points="451,98.1 430.7,91.1 325.7,91.5 283.4,106 283.4,121.9 235.6,121.5 226.8,132.2 266.9,130.8 
		215.2,147.2 189.9,176.7 211.4,176.2 170.2,199.2 185,200.1 264.1,167.8 355.4,165 382.9,188.4 393.3,178.6 384,170.6 373.5,170.6 
		363.6,160.8 451,98.1 	"/>
	<polygon class="st0" points="382.3,247.8 368,237.5 362,242.2 371.9,253.5 382.3,253.5 	"/>
	<polygon class="st0" points="936.4,263.3 925.4,248.8 915.5,246.9 915.5,236.1 884.2,263.3 	"/>
	<polygon class="st0" points="919.9,93.4 856.7,71.4 847.4,71.4 825.4,86.8 832.5,71.4 822.1,71.4 796.2,94.8 858.9,92 896.8,121 
		871,120.5 857.8,129.4 828.7,129.4 828.7,136.5 858.3,136.5 883.6,154.2 890.2,151.9 884.2,140.7 901.2,147.7 906.7,145.8 
		906.7,123.8 926.5,129.9 938.1,123.3 931.5,113.1 919.9,109.3 	"/>
	<polygon class="st0" points="706.1,290.4 724.2,290.4 736.9,282.9 778.1,282.9 795.7,269.8 811.6,269.8 805.6,285.3 833.6,281.1 
		814.9,288.5 816.6,295.1 867.1,280.1 842.4,279.2 830.9,270.3 842.4,255.3 836.9,250.6 801.2,264.2 801.2,256.3 835.3,242.2 
		889.7,240.3 930.9,221.6 930.9,213.2 901.2,209 899,167.3 860,180.4 860.5,160.8 841.9,147.2 816,147.2 746.8,233.3 729.7,233.3 
		730.3,205.2 670.4,177.6 730.3,139.7 764.4,134.6 757.2,125.7 809.4,121 830.9,102.3 811.1,100.4 783.6,115.9 786.9,102.8 
		774.2,101.8 771,85.9 749,94.3 755,104.6 725.3,116.8 673.7,108.4 646.2,119.1 579.7,96.7 452.7,99 364.2,161.7 374.1,171.6 
		384.5,171.6 393.9,179.5 383.4,189.3 373,230.5 392.2,245 392.2,253 605.5,253 630.8,262.8 673.1,255.3 678.6,271.2 687.4,276.8 
		701.7,275.9 	"/>
	<polygon class="st0" points="783,129 766.6,140.2 798.4,143 801.7,136 	"/>
	<polygon class="st0" points="720.4,100.4 726.4,107 741.8,100.4 737.4,94.3 	"/>
	<polygon class="st0" points="731.9,78.4 741.8,86.8 762.7,80.8 768.2,68.6 	"/>
	<polygon class="st0" points="771.5,73.3 774.2,81.2 802.3,74.7 796.8,68.1 	"/>
	<polygon class="st0" points="843.5,56.9 828.1,51.3 813.3,62 874.3,66.3 890.2,56.9 	"/>
	<polygon class="st0" points="991.9,27.4 1023.8,12 897.4,19.9 897.4,25.5 940.3,24.6 934.2,31.2 889.7,32.1 895.7,41 876.5,38.2 
		884.2,46.6 851.2,46.6 856.2,50.8 891.9,50.8 897.9,55 950.1,34.4 	"/>
	<polygon class="st0" points="837.5,34 861.1,37.7 874.8,30.2 864.9,24.1 	"/>
	<polygon class="st0" points="588.5,86.4 644,70.5 631.3,65.3 579.1,76.5 	"/>
	<polygon class="st0" points="650.6,73.3 620.9,81.7 638.5,87.8 611,93.9 645.1,105.1 668.7,96.2 695.1,101.4 714.9,97.6 
		695.6,90.1 710.5,73.7 695.6,73.7 686.8,83.6 683,73.7 667.6,78.9 	"/>
	<polygon class="st0" points="544.5,521.6 529.1,521.6 521.9,532.8 543.9,542.2 558.8,519.3 556,507.1 541.7,507.1 	"/>
	<polygon class="st0" points="561.5,539.9 558.8,547.8 562.6,549.2 599.5,523 555.5,523.5 548.3,534.7 	"/>
	<polygon class="st0" points="558.8,547.8 561.5,539.9 547.8,534.7 542.8,541.7 	"/>
	<polygon class="st0" points="572.5,495.9 555.5,506.6 558.2,518.8 	"/>
	<polygon class="st0" points="576.9,565.6 600.5,567.9 599.5,523.5 562.6,549.7 	"/>
	<polygon class="st0" points="615.4,688.7 635.2,696.6 669.8,660.1 634.1,642.8 617,661.1 	"/>
	<polygon class="st0" points="686.8,560 677.5,560 657.7,582.9 647.8,583.4 650.6,591.8 645.1,598.4 648.9,610.1 645.1,631.6 
		633.5,643.8 714.9,683.1 714.9,638.6 733.6,637.7 733.6,602.6 702.8,599.8 689.6,587.1 	"/>
	<polygon class="st0" points="816,1097.2 828.1,1106.6 865.5,1107.5 825.4,1089.7 	"/>
	<polygon class="st0" points="873.2,868.9 856.7,877.3 834.7,877.3 834.7,860.9 790.2,835.2 787.4,838.9 750.6,838.9 740.7,918 
		761.6,996.6 780.8,1025.6 781.9,1047.2 810,1084.1 820.4,1085.1 814.9,991 874.8,969 847.9,936.7 847.9,901.1 874.3,878.2 	"/>
	<polygon class="st0" points="879.8,946.5 893,927.4 847.9,901.1 847.9,936.7 	"/>
	<polygon class="st0" points="753.4,572.6 733,560.5 686.3,560 689,586.7 702.2,599.3 733,602.1 733,637.2 738,636.7 744,648.9 
		764.4,643.3 762.7,624.6 789.6,616.1 797.3,582.4 788.5,575 	"/>
	<polygon class="st0" points="576.9,565.6 592.9,583.9 598.4,585.7 606.6,576.8 601.1,574 601.1,567.5 	"/>
	<polygon class="st0" points="826.5,605.4 798.4,582.4 790.7,616.1 802.3,612.4 800.6,640.9 827.6,638.1 818.2,618 	"/>
	<polygon class="st0" points="757.2,743.4 729.7,750 729.7,803.8 750.6,839.4 788,839.4 802.3,816.9 830.3,816.9 829.8,799.1 
		781.9,765.9 	"/>
	<polygon class="st0" points="851.8,636.3 869.9,634.4 875.4,621.3 868.2,608.2 853.4,607.3 	"/>
	<polygon class="st0" points="830.3,816.4 802.3,816.4 790.2,835.2 834.7,860.9 834.7,877.3 856.7,877.3 873.2,868.9 872.1,855.8 
		831.4,837 	"/>
	<polygon class="st0" points="827.6,638.6 851.8,636.3 852.9,607.3 826.5,605.4 818.2,618.5 	"/>
	<polygon class="st0" points="940.8,667.6 920.5,660.1 900.1,670.4 906.7,655 893,649.8 873.7,662.5 888,644.7 875.9,621.8 
		870.4,634.9 801.2,641.4 802.8,612.9 791.3,616.6 764.4,625 766,643.8 745.7,649.4 739.6,637.2 716,638.6 716,691 691.8,693.4 
		681.4,722.8 722,752.3 758.3,743.4 783,765 830.9,798.2 832.5,837 873.2,855.8 874.8,877.3 848.5,900.2 893.5,926.4 919.9,887.1 
		926,853.4 990.3,829.1 1002.4,753.7 1029.8,722.8 1029.8,704.1 984.8,678.9 940.3,676.5 	"/>
	<polygon class="st0" points="623.6,575.9 615.9,581 606,576.4 597.8,585.3 621.4,592.3 626.9,584.8 640.7,585.7 644.5,597 
		650,590.4 647.8,582.9 645.1,573.6 	"/>
	<polygon class="st0" points="690.7,692.9 714.9,690.6 714.9,682.6 669.3,660.6 634.6,697.1 614.8,689.1 614.3,697.6 673.7,783.7 
		724.8,812.7 729.2,803.8 729.2,750.5 720.4,752.8 679.7,723.3 	"/>
	<polygon class="st0" points="761.6,996.6 740.7,918 750.6,838.9 729.7,803.3 725.3,812.2 734.1,991 756.7,1006.4 757.8,1038.7 
		797.3,1082.3 810,1083.2 781.9,1046.2 780.8,1024.7 	"/>
	<polygon class="st0" points="669.8,312.9 684.1,304.9 700.6,304.9 686.8,312.9 	"/>
	<polygon class="st0" points="796.2,270.3 778.6,283.4 737.4,283.4 724.8,290.4 734.7,290.4 720.9,298.4 711.6,298.4 724.8,290.4 
		698.4,290.4 686.3,298.4 674.8,299.3 677,282 668.2,282 657.2,288.1 637.4,312.9 625.8,312.9 648.4,282 674.8,277.3 673.1,273.1 
		656.1,272.6 647.8,268 637.4,272.6 625.3,272.6 630.2,263.3 604.9,253.5 391.7,253.5 321.3,316.6 321.3,365.3 347.1,386.8 
		436.7,396.7 448.8,412.1 474.1,411.6 495,446.3 533.5,405.1 625.8,405.1 631.9,444.4 646.7,444.9 647.3,395.7 796.2,287.1 
		806.7,285.7 812.2,270.3 	"/>
	<polygon class="st0" points="884.7,263.3 937,263.3 926,248.8 916.1,246.9 916.1,236.1 	"/>
	<polygon class="st0" points="498.3,501 478,464 495,446.3 474.1,411.6 448.8,412.1 436.7,396.7 347.1,386.8 347.1,387.3 351,421.5 
		379,465.9 390,458.4 368,419.1 368,396.7 381.2,396.7 381.8,417.2 423,500.1 490.1,523.9 507.1,520.2 521.4,532.8 529.1,521.6 
		544.5,521.6 542.3,507.1 555.5,507.1 573.1,496.3 573.6,480.4 554.9,480 539.5,501 	"/>
	<polygon class="st0" points="451,98.1 430.7,91.1 325.7,91.5 283.4,106 283.4,122.4 235.6,121.9 226.8,132.7 266.9,131.3 
		215.2,147.7 189.9,176.7 211.4,176.7 170.2,199.6 185,200.6 264.1,168.3 355.4,165.9 383.4,189.3 393.9,180 384.5,171.6 
		374.6,171.6 364.2,161.7 	"/>
	<polygon class="st0" points="382.3,247.8 368,237.5 362,242.2 371.9,253.5 382.3,253.5 	"/>
	<polygon class="st0" points="936.4,263.3 925.4,248.8 916.1,246.4 916.1,236.1 884.2,263.3 	"/>
	<polygon class="st0" points="919.9,93.4 856.7,71.4 847.4,70.9 824.8,86.4 832.5,70.9 821.5,70.9 796.2,94.3 858.3,91.5 
		896.8,120.5 871,120.1 857.8,129 828.7,129 828.7,136 858.3,136 883.6,153.8 890.2,151 884.2,139.7 901.8,146.7 907.3,144.9 
		907.3,122.9 927.1,129 938.6,122.4 932,112.1 920.5,108.8 	"/>
	<polygon class="st0" points="706.1,290.4 724.8,290.4 737.4,282.9 778.6,282.9 796.2,269.8 812.2,269.8 806.1,285.3 834.7,281.1 
		816,289 817.7,295.1 868.2,280.1 843.5,279.2 832,270.3 843.5,255.3 838,251.1 802.3,264.7 802.3,256.7 836.4,242.7 891.3,240.8 
		932,222.1 932.6,213.7 902.3,209.5 899,167.3 859.4,180.9 860,161.3 840.8,147.2 815.5,147.2 745.7,233.3 729.2,233.3 729.2,205.2 
		669.8,177.6 729.2,139.7 763.3,134.6 756.1,125.7 808.3,120.5 829.8,101.8 810,99.9 782.5,115.4 785.2,102.3 772.6,101.4 769.3,85 
		747.3,93.4 753.4,103.7 723.7,115.9 671.5,107.4 644.5,118.7 578,95.7 451,98.1 364.2,161.7 374.1,171.6 384.5,171.6 393.3,180 
		382.9,189.3 372.4,231 391.7,245.5 391.7,253.5 604.9,253.5 630.2,263.3 672.6,255.3 677.5,271.7 686.3,276.8 700.6,275.9 	"/>
	<polygon class="st0" points="783,129 766.6,140.2 799,143 802.3,136 	"/>
	<polygon class="st0" points="720.4,100.4 726.4,107 741.3,100.4 736.9,94.3 	"/>
	<polygon class="st0" points="731.9,78.4 741.3,86.4 762.2,80.8 767.7,68.1 	"/>
	<polygon class="st0" points="771.5,73.3 773.7,81.2 802.3,74.7 796.8,68.1 	"/>
	<polygon class="st0" points="843.5,56.9 828.1,51.3 812.7,62.5 873.7,66.3 889.7,56.9 	"/>
	<polygon class="st0" points="991.9,27.4 1023.8,12.4 897.4,20.4 897.4,26 940.3,25.5 934.2,32.1 889.7,33 895.7,41.5 876.5,39.1 
		884.2,47.1 851.2,47.1 856.2,51.3 891.9,51.3 897.9,55.5 950.1,34.9 	"/>
	<polygon class="st0" points="837.5,34 861.1,37.7 874.3,30.2 864.4,24.1 	"/>
	<polygon class="st0" points="588.5,86.4 643.4,70.5 630.8,65.3 578.6,77 	"/>
	<polygon class="st0" points="650.6,73.3 620.9,82.2 638.5,88.2 611,94.3 645.1,105.6 668.7,97.1 694.5,102.3 714.3,98.5 
		695.1,91.1 709.9,74.7 695.1,74.7 686.3,84.5 683,74.7 667.1,79.8 	"/>
	<polygon class="st0" points="544.5,521.6 528.5,521.6 521.4,532.8 543.4,542.2 558.2,519.3 555.5,507.1 541.7,507.1 	"/>
	<polygon class="st0" points="561.5,539.9 558.8,547.8 562.6,549.7 599.5,523.5 555.5,523.9 547.8,534.7 	"/>
	<polygon class="st0" points="558.8,547.8 561.5,539.9 547.8,534.7 543.4,542.2 	"/>
	<polygon class="st0" points="572.5,495.9 555.5,507.1 558.2,519.3 	"/>
	<polygon class="st0" points="576.9,565.6 600.5,567.5 599.5,523.5 562.6,549.7 	"/>
	<polygon class="st0" points="615.4,688.7 634.6,696.6 669.8,660.1 634.1,643.3 617,661.1 	"/>
	<polygon class="st0" points="686.8,560 677.5,560 657.7,582.4 647.8,582.9 650.6,591.3 645.1,597.9 649.5,609.1 645.6,630.7 
		634.1,643.3 715.4,682.6 715.4,638.1 734.1,637.2 734.1,602.1 703.3,599.3 689.6,586.7 	"/>
	<polygon class="st0" points="816,1097.2 828.1,1106.6 864.9,1108 824.8,1089.7 	"/>
	<polygon class="st0" points="873.2,868.9 856.7,877.3 834.7,877.3 834.7,860.9 790.2,835.2 788,838.9 750.6,838.9 740.7,918 
		761.6,996.6 780.3,1025.2 781.4,1047.2 809.4,1083.7 819.9,1084.6 814.4,990.5 874.3,968.5 847.4,936.2 847.4,900.7 873.7,877.7 	
		"/>
	<polygon class="st0" points="879.8,946.5 892.4,927.4 847.4,900.7 847.4,936.2 	"/>
	<polygon class="st0" points="753.4,572.6 733.6,560.5 686.8,560 689.6,586.7 703.3,599.3 734.1,602.1 734.1,637.2 739.1,636.7 
		745.1,648.9 765.5,643.3 763.8,624.6 790.7,616.1 798.4,582.9 789.6,575.4 	"/>
	<polygon class="st0" points="576.9,565.6 592.9,583.9 598.4,585.7 606.6,576.8 600.5,574 600.5,567.5 	"/>
	<polygon class="st0" points="826.5,605.4 798.4,582.9 790.7,616.1 802.3,612.9 800.6,641.4 827.6,638.6 818.2,618.5 	"/>
	<polygon class="st0" points="757.2,743.4 729.7,750 729.7,803.8 750.6,838.9 787.4,838.9 802.3,816.4 830.3,816.4 829.8,798.2 
		781.9,765 	"/>
	<polygon class="st0" points="851.8,636.3 869.9,634.9 874.8,621.8 868.2,608.7 852.9,607.7 	"/>
	<polygon class="st0" points="830.3,816.4 802.3,816.4 790.2,835.2 834.7,860.9 834.7,877.3 856.7,877.3 873.2,868.9 872.1,855.8 
		830.9,837.5 	"/>
	<polygon class="st0" points="827.6,638.6 851.8,636.3 852.9,607.7 826.5,605.4 818.2,618.5 	"/>
	<polygon class="st0" points="940.8,667.6 919.9,659.7 899.6,670 906.2,655 893,649.8 873.2,662.5 887.5,644.7 874.8,621.8 
		869.9,634.9 800.6,641.4 802.3,612.9 790.7,616.1 763.8,624.6 765.5,643.3 745.1,648.9 739.1,636.7 714.9,638.1 714.9,690.6 
		690.7,692.9 680.3,722.8 720.9,752.3 757.2,743.4 781.9,765 829.8,798.2 830.9,837.5 872.1,855.8 873.7,877.7 847.4,900.7 
		892.4,927.4 918.8,888 925.4,853.9 989.2,830 1001.3,754.7 1028.7,723.8 1028.7,705.1 983.7,679.8 939.2,677.9 	"/>
	<polygon class="st0" points="623.6,575.9 616.5,581.5 606.6,576.8 598.4,585.7 622,592.7 628,585.3 641.2,586.7 645.1,597.9 
		650.6,591.3 648.4,583.9 645.1,574.5 	"/>
	<polygon class="st0" points="690.7,692.9 714.9,690.6 714.9,682.6 669.3,660.1 634.6,696.6 615.4,688.7 614.3,697.1 673.7,783.2 
		725.3,812.7 729.7,803.8 729.7,750 720.9,752.3 680.3,722.8 	"/>
	<polygon class="st0" points="761.6,996.6 740.2,918 750.6,838.9 729.7,803.8 725.3,812.7 733.6,991.5 756.7,1007.4 757.8,1039.2 
		796.8,1082.7 809.4,1083.7 781.4,1047.2 780.3,1025.2 	"/>
</g>
</svg>
