<?xml version="1.0" encoding="utf-8"?>
<!-- Generator: Adobe Illustrator 22.1.0, SVG Export Plug-In . SVG Version: 6.00 Build 0)  -->
<svg version="1.1" id="Asia" xmlns="http://www.w3.org/2000/svg" xmlns:xlink="http://www.w3.org/1999/xlink" x="0px" y="0px"
	 viewBox="0 0 1200 1120" style="enable-background:new 0 0 1200 1120;" xml:space="preserve">
<style type="text/css">
	.st0{fill:#FFFFFF;}
</style>
<path class="st0" d="M1187,414.7c-7.8-7.3-11.7-11.6-21.2-13.8c-15.5-3.5-5.8-0.4-11.4,10.8c-1.7-0.2-9.2-23.5-12.5-26
	c-26.1-17.5-53-36.2-83.7-36.2c-4.8-1.2-15.1-3.8-17.7,2.2c-2.3,5.1,6.3,9.2,5.2,13.3c-4.6,16.2-14.5-2.4-21.2-5.6
	c-10.8-5.1-11.6,0-24.6-0.3c-10.9-0.3-18.8-7.8-27.7,5c-2.1-6.2,0.2-10.5-8.4-9.4c5.4-39.9-42.9-15.9-59-22.5
	c-6.9-2.9-16.4-15.6-18.9-18.9c-3.9-5.1,9.3-2.2-3.8-8.4c-2.6-1.2-8.8-0.6-11.6-0.5l0,0c-4.9,4.1-9.5,9.4-16.1,10.7
	c1.7-0.7,9.7-5.2,7.9-7.9c-2.3-1.4-4.7-2.1-7.4-2c8.1-7.7-6.8-9-12.9-10.3c-16.5-3.6-15.1,2.2-29.4,4.2l0,0
	c-3.9,3.4-8.8,11.6,1.2,6.6c0.5,1,0.8,13.9-0.7,14.3c-1.2-0.4-2.3-0.9-3.4-1.6c-11.4-4.9-4,8.2-11.3,7.3c-6.2-0.8-8.6-6.7-14.9-6.9
	c-4.7-0.1-8.5,6-13.2,5c-1.4-0.3-8.6-9.8-9.4-9.6c-7.3,2.3-2.6,10.1-7.4,14.3c-16.2,13.9-20.3-26.1-38.9-26.1
	c0-10.3,31.7-12.4,12.3-24.7c-3.1-2-6.2,0.2-9.4-0.9c-3.4-1.2-13.7-6.2-16.6-6.6l0,0c-15.8-2.2-3.9,10.9-9.5,16.4
	c-4.9,4.9-16.7,3.5-24.5,1.6c-16.6-4-13.3-18.4-34.4-15.5c-11.3,1.5-5.8-0.5-13.4,7.1c0-5.1,2.2-9.3-4.8-10.6l0,0
	c-5.7,1.5-8.1-2.2-12.4-2.5c-1.9-0.2-2.5-4.6-4.7-4c-9.5,2.6-1.7,5.6-4.2,8c-2.3,2.2,0.3,2.6-8.1,8.4c-7.1,4.9-16.6,4.7-23.7,10.6
	c10.8-25.9,68.3-40.7,59.3-73.7c-1.9-6.9-13.5-16.4-19.8-19.4c-14.9-7.1-14.5,0.1-24.9,2.3c-2.1,0.4-5.8,2.5-8.3,0
	c9-12.3-0.3-8.4-6.8-13c-2.5-1.8-6.8,0.4-8.4-2c-1-1.7,7.6-8.2,4.8-12.9c-4.3-7.3-20.6-0.3-25.1,3.5c-8.7,7.4-2.7,13.9-6.4,20.5
	c-0.1,0.1-12.3,14.1-13.4,14.9c-1.5,1.2-15.6,6.3-17.3,6.1c-2.8-0.3-3.7-5.5-5.6-5.8c-8.7-1.4-4.9-4.6-14-1.2
	c-3.7,1.4-6.2,6.4-10,8.2c-10.6,5-20.6,5.3-30.6,12c-6.6,4.4-14.9,10.1-16.2,18.8c-1.3,8.9,10.7,20.6-0.8,25.6
	c5.6-12.9-15.7-2.9-23.5-2.3c-3.9,0.3-18.1-0.1-21.1,3.3c-7.5,8.1,1.5,24.6,8.2,29.8c5.1,3.1,8.1,7.7,9.5,13.4
	c-1.9-2.6-7.8,0-10.6-1.3c-4.6-2-6.7-8.7-11.1-11c-6.4-3.3-19.6-5.2-15.8,7c-1.6-0.9-10-3.8-11.2-1.3c-5.9,12,14.3,9,14.8,20.2
	c-11.2-7.4-20.3-5.1-22.2-19.1c-1.3-9.7,7.6-25.4-5.8-13.9c-1.1,0.9-0.7,9-2,11.3c-1.9,3-8.5,4.2-9.8,7.7c-2.5,6.5,4.1,17,4.5,24.8
	c1.1,20.4-3.1,19.5,13,25c9.3,3.2,13.8,0.4,18.1,13.9c-0.5-1.6-1.8,16.3-0.3,11.9c-0.1,0.2,4,1,3.3,2.4c-4.5,9-11.4-22.6-12.5-23.2
	c-11.7-6.8-15.1,6.7-17.6,13.2c-3.4,9-0.5,17.1-10.9,24.8c-7.9,5.8-16.2,8.1-25.2,1.3c20.8,6.5,28.5-21.8,26.6-38.1
	c-1.6-14.1-1.1-27.9-2.6-42.1c-1.3-12-0.7-10.5,0.6-20.9c1.7-13.8,3.1-17.9-11.1-19.5c-16.6-1.9-15.3,6.9-20.9,18.5
	c-2.8,5.9-10.6,12.3-12.3,18.4c-2.1,7.5,3.4,6.8,3,13.2c-0.1,2-4.2,9.9-4,10.6c1.4,7.1,4,3.3,7.2,8.1c1.6,2.4,8.4,12.7,8.4,13.6
	c0,4.3-2.5,10.4-6.6,6c-0.9,18.6-14,38.1-25.3,52.5c-12.4,16-45.7,23.6-47.2,41.1c-0.4,4.5,3,9.4,2.7,14.3c-0.1,2.2-3.6,4.5-4.1,6.8
	c-1.8,9.6-2.8,18.9-5.4,28.4c-1.9,7-3.7,16.2-7.6,22.6c-4.8,7.9-18.4,12.5-21.7,19.7c-7.7,16.3,20.2,23.4,6.9,44
	c-8.5,13.2-53.3,14.1-41.6,37.5c7.3,14.6,28,0.5,33.4,10.4c8.1,14.9-15.1,7.8-16.6,15c0.4,1.5,1.3,2.6,2.6,3.2
	c-11.1,0-4.9,2.8-1.3,8.3c7.4,11.5,13.2,11.6,12,26.1c2.3-20.8,15.4-1.3,14.5-0.4c-2.5,2.5-9.5-1.9-11.2,0.1
	c-8.3,9.9,3.2,5.2,3.2,9.5c0.6,1.1,2.4,13.4,1.9,17c-0.6,4.1,0,5.7-3.6,8.6c-11.3,9.4-18.7-6-27.1-6c-4.6,0.1-6.8-2.1-6-7.1
	c-10.9,3-21.9,11.4-33.2,8.6c-0.4,0.5,3.4,3.1-1.4,2.2c-3-3.5-6.3-2.8-11.3-2.9c1.6-2-0.9-0.6-1.8-0.2l0.1,0.1
	c-9.5,5.2-22.6,3.3-32.3,4c-11.3,0.8-11.7,7.6-19.8,7.9c2.3,11.8-4.8,26.9-12.6,35.9c-15.6-6.8-11.2,20.7,0.8,26.6
	c0.9-2.5,3.3-10.5,5.3-12.1c0.2,1.6,0.2,1,1.6,1.1c-8.2,15.4,16.5,31.4,23.9,42.6c3.6,5.4,3.9,11.2,7.1,16.5
	c2.8,4.5,6.8,6.4,10,10.6c5.2,6.8,14.6,18.3,16.4,26.3l0.1-0.1c-0.2,23.3,11.7,20.7,30.8,16.8c16.9-3.4,31-11.7,46.3-19.6
	c0.4-0.3,0.9-0.5,1.3-0.7c12.8-7.8,24.6-9.2,35.1-19.5c8.4-8.3,17-18.6,7.4-28.7c-4.3-4.5-10.3,0-15.7-7.8c-3-4.2-3.7-9.9-2.6-14.9
	c-6.3,6.6-26.6,29.8-37,15.8c-0.6-0.8,4.8-15.6-2.2-13.5c-5.9,1.8-5.7,7.4-3.1,11.3c-6.3-3.8-3.3-8.9-5.9-13.9
	c-2.5-4.6-9-7.9-9.8-13.3c-4.9-6.2-4.2-10.1,2.7-11.9c8.1-2.1,14.8,12.8,21.5,17.5c12.5,8.7,25.6,4.8,35.6,8.3
	c2.9,1,7.6,7.1,12.6,8.6c4.1,1.3,10.4,0.7,14.7,0.8c5.4,0.2,9.6,0.3,14.8,0.1c17.9-0.4,31.7-5.4,41.4,11.3c4.2,3.1,9.1,5.2,14.3,5.9
	c-15.2,8.1,18.9,24.9,18.9,4.7c3.1,5.3,3.3,9,3.7,12.2c2.7,18.6,6.2,29,15,46.4c3,6,8.8,28.7,14.6,32.6c8.5,5.8,15.6-3.4,19.4-9.5
	c3.8-6,5.7-14.8,7.1-23c1.1-6-2-7.9,1.6-13.9c2.9-4.8,15.3-10.9,20.1-14.7c9-7.1,19.3-14,27.6-20.5c3.4-2.6,5.6-11.3,12.4-5.4v-1
	c2,2,3.2,1.9,3.1-1.1l1.4,2.2c1.9-1.9,3-2.5,5.4-3.2c2.6,1.2,9.7-0.9,4.3-6.2c7.2,0,10.5,9,13.6,13.4c4.2,6.4,5.4,5,9.6,9.2
	c0.6,2.1,3.7,8.4,5.5,13.9c1.5,4.9-6.9,14.5,2.7,9.2c0,1.5,0,3,0,4.4c1.1-0.8,2.2-1.7,3.4-2.5c4.6,1.9,10.9-3.8,12.5-9.5
	c13.3,10.3,11.7,36.1,12.6,51l0.1-0.2c0.5,3.7-3.5,5.7-2.3,8.6c1.3,3.4,15.1,4.3,16.8,4.7c0-4.6-5.9-7.7-6.1-10.3
	c-0.1-1.1-3.2-3.2-3.5-5.5c-0.3-2.3,3.5-5.9,4-8.3c3.1-13.8,4.8-14.8,14.9-8.6c4.6,2.9,10.7,8.1,13.9,11.5c2.3,2.4,6.6,3,8.6,5.3
	c3.9,4.3-3.1,9.9,3.3,10.9c1.6,0.3,19.8-13.6,22.1-15.6c11.5-10,11.7-22.5,1.5-35.4c-9.7-12.2-27.6-18.4-8.9-32.6
	c8.6-6.5,12.3-1.8,18.9-5.1c-1.3,3.6,0.2,9.7,4.9,9.7c-11,2.8-18.3,17.8-3.2,12c3-1.1,13-12.4,4.7-12.4c2.7-1.6-1.1-6.6-0.1-8
	c1.8-2.7,7.2-1.3,9.8-2.8c2-1.1,6.9,0.1,10-1.7c3.2-1.8,7.1-9.7,10.8-14c7.2-8.3,14-16,23-22.6c12.4-9,24.9-9.5,27.6-24.7
	c-1.2-0.2-5.2,0-6.7,0.5c25.4-6.3-8.5-25.8-8-37c0.4-10.4,25.1-15.1,24.1-17.7c-2.3-5.9-14.7-3.6-18.7-4.2c-6.8-1-8.1,6.2-14.3-4.8
	c-5.8-10.2-2.2-2.8,2.5-7.3c2-1.9,22.1-16.9,23.7-14.7c1.7,1.5-2.8,10.3-1.8,12.7c-1.7,1.5-3.2,3.3-4.4,5.2
	c7.9-1.8,19.1-9.7,26.7-6.5c10.1,4.4-2.5,8.4,4.3,16c11.1-12.3,24.9-19.9,35.6-32c4.1-4.6,5.8-9.1,10.9-11.3
	c-0.2-0.9,0.7-2.2,1.9-2.8c10.7,6.2,12.3,0.5,19.7-9.2c13.3-17.5,39.5-25.9,45.8-47.3c2.2-7.5,7.7-31.1,7.1-38.1
	c-0.5-4.9-3.3-10.8-7.4-14c-12.2-9.5-10.3,0.4-16.7,1c-1.3,0.1-9.3-1.4-10.3-0.5c0.4-3.1-0.3-9.5-4.2-9.5c-2.3,0.7-4.9,0.9-7.3,1.4
	c1.5-7.7,20.9-22.5,27-28.1c7.2-6.5,14.6-15.5,22-21.3c12.4-9.6,16.1-4.7,29.3-3.9c8.5,0.5,35.1-16.4,43.7-2.9
	c-2.1,0-6.9,3.4-5.4,5.9c2.8,3.7,30.8-3.3,35.1-5.6c-17.9-4-3.6-17.1,6.4-25.7c10.1-8.6,17.1-4.7,27.1-8c-3,5.4-2.6,13.6,3.8,14.5
	c13.1,1.7,21.7-33.7,33.8-23.4c-10.4,0-7.8,7.7-11.6,14.5C979,510.8,957.8,520,942.6,536c-8.6,9.1-12.8,26-12.7,38.4
	c0.1,12.2,3.6,43.4,19.9,33c6.3-4,9.4-19.1,14.3-24.1c1.2-1.2,7-5.9,8.3-7.3c1.3-1.5,5.9,0.6,7.6-1.9c3.5-5-3.3-11.1,3-19.5
	c0,4,0.9,5.5,5.1,4.3c7.8-2.1-4.6-13.1-0.9-16.8c5.9-5.9-1.2-7.7-7.1-7.6c-1.7-4.6,12.1-24.6,15.6-26.1c0.6,1.6,2.3,4.3,2.8,5.2
	c2.9-3.8,6.2-6.5,10.4-8.8c-1.2,2.4-1.5,4.6-0.4,6.8c1.8-0.5,5.8-2.6,8.7-4c3.7-1.7,7.7-6.5,12.3-5.9c4.5,0.6,5.6,7.1,9.4,7.1
	c7.3,0,16.8-14.1,22.5-18.2c6.8-4.8,21.9-15.8,29.1-16.9c1.8-0.3,8,3.1,9.2,2.7c4.4-1.3,8.9,1.3,11.1-4.6c0.8-2-4.6-13.2-8.4-13.2
	c5.3-8.5-4.9-8.9-3.1-12.2l-0.1,0.2c5.4-3.9,10.8-7.7,15.8-12.2c2.8-6.6,0.4-12.7,6.2-16.7c4.2,4.2-3.2,7.7,6.2,9.2l0,0
	c14.9-6.1,14.1,11.4,25.9,14.5c11.5,3.1,23.6-8.7,12.5-19.2c5.2,0,7.5,4.2,13.7,2C1180.5,423.7,1186.8,416.7,1187,414.7z"/>
<path class="st0" d="M391.2,334.8c-1.2-1.2-1.7-2.6-1.6-4.2l-0.8,0.4c-0.3-0.9-0.5-1-0.8-0.2c-1.4,1.3-2.6,3.1-3.1,5
	c0.3-6.3,6-12.2,6-17.6C391.8,323.4,391.7,329.5,391.2,334.8z"/>
<path class="st0" d="M1089.5,441.2c-0.9,1.4-1.1,3.3-3.4,2.2c1.2-1.8,0.7-2.7-0.4-4.2c1.1,0.6,2.6,1.2,3.7,1.3
	C1089.5,440.7,1089.5,441,1089.5,441.2L1089.5,441.2z"/>
<path class="st0" d="M1096.8,448.2c-1.7-0.9-3.6-4.6-4.3-6.4C1092.3,436.4,1101.8,442.4,1096.8,448.2z"/>
</svg>
