<?xml version="1.0" encoding="utf-8"?>
<!-- Generator: Adobe Illustrator 22.1.0, SVG Export Plug-In . SVG Version: 6.00 Build 0)  -->
<svg version="1.1" id="Australasia" xmlns="http://www.w3.org/2000/svg" xmlns:xlink="http://www.w3.org/1999/xlink" x="0px"
	 y="0px" viewBox="0 0 1200 1120" style="enable-background:new 0 0 1200 1120;" xml:space="preserve">
<style type="text/css">
	.st0{fill:#FFFFFF;}
</style>
<g>
	<polygon class="st0" points="516.8,70.6 511.6,90.2 566.5,85 566.5,70.6 	"/>
	<polyline class="st0" points="584.9,31.3 652.9,62.7 645.1,23.5 	"/>
	<polygon class="st0" points="649,95.4 732.7,130.8 747.1,174 719.6,191 791.6,215.8 791.6,74.5 734,43.1 680.4,87.6 622.8,65.3 
		616.3,96.8 	"/>
	<polygon class="st0" points="817.8,225 867.5,179.2 931.6,242 990.5,253.8 917.2,180.5 921.2,142.6 791.6,74.5 791.6,215.8 	"/>
	<polygon class="st0" points="955.2,149.1 981.4,164.8 1027.2,139.9 1027.2,113.8 	"/>
	<polygon class="st0" points="991.8,74.5 1044.2,112.5 1065.1,104.6 1011.5,73.2 	"/>
	<path class="st0" d="M1105.7,933l-13.1,41.9l95.5-68l-27.5-36.6v-41.9l-15.7,6.5v58.9L1105.7,933z M854.4,1070.4l198.9-100.8v26.2
		l-153.1,100.8L854.4,1070.4z M39.2,553.5l167.5-78.5L331,337.5l68,30.1l30.1-62.8l113.8-2.6l-28.8,52.3l94.2,81.1l62.8-62.8v-87.7
		l28.8,9.2l32.7,157l102.1,143.9l-10.5,108.6L638.5,896.3l-161-9.2l-19.6-108.6l-55,23.6l-52.3-45.8l-318,69.4L13,802.1l26.2-62.8
		V553.5z"/>
	<polygon class="st0" points="516.8,70.6 510.3,90.2 565.2,85 565.2,70.6 	"/>
	<polyline class="st0" points="586.2,32.6 652.9,62.7 646.4,24.8 	"/>
	<polygon class="st0" points="649,95.4 732.7,130.8 748.4,174 719.6,191 791.6,215.8 791.6,74.5 734,43.1 679.1,87.6 621.5,65.3 
		615,96.8 	"/>
	<polygon class="st0" points="817.8,225 867.5,179.2 931.6,242 991.8,253.8 918.6,180.5 922.5,142.6 791.6,74.5 791.6,215.8 	"/>
	<polygon class="st0" points="955.2,149.1 981.4,164.8 1025.9,138.6 1025.9,112.5 	"/>
	<polygon class="st0" points="991.8,74.5 1044.2,112.5 1065.1,105.9 1011.5,73.2 	"/>
	<path class="st0" d="M1105.7,933l-13.1,41.9l95.5-68l-27.5-36.6v-41.9l-15.7,6.5v58.9L1105.7,933z M854.4,1070.4l198.9-100.8v26.2
		l-153.1,100.8L854.4,1070.4z M39.2,553.5l167.5-78.5L331,337.5l68,30.1l30.1-62.8l113.8-2.6l-28.8,52.3l94.2,81.1l62.8-62.8v-87.7
		l28.8,9.2l32.7,157l102.1,143.9l-10.5,108.6L638.5,896.3l-161-9.2l-19.6-108.6l-55,23.6l-52.3-45.8l-318,69.4L13,802.1l26.2-62.8
		V553.5z"/>
</g>
</svg>
