<?xml version="1.0" encoding="utf-8"?>
<!-- Generator: Adobe Illustrator 22.1.0, SVG Export Plug-In . SVG Version: 6.00 Build 0)  -->
<svg version="1.1" id="Caribbean" xmlns="http://www.w3.org/2000/svg" xmlns:xlink="http://www.w3.org/1999/xlink" x="0px" y="0px"
	 viewBox="0 0 1200 1120" style="enable-background:new 0 0 1200 1120;" xml:space="preserve">
<style type="text/css">
	.st0{fill:#FFFFFF;}
</style>
<g>
	<path id="B382E279" class="st0" d="M1150,707.3c-2.3,3.3-5.9,24-11.9,9.9C1134.7,709.3,1140,701.5,1150,707.3"/>
	<path id="F382E279" class="st0" d="M1150,706.5c4.2-3.2-0.1-9.5,6.7-10.5c0.9,5.2,6,8.9,11,11.4
		C1163,708.7,1152.5,712.8,1150,706.5"/>
	<path id="_x32_482E279" class="st0" d="M1162.4,726.4c-4.1-3.5-3.3-5.3,2.4-5.3C1165.6,723.4,1164.8,725.2,1162.4,726.4"/>
	<path id="_x37_582E279" class="st0" d="M1175.4,799.1c-3.9-5-8.7-0.7-10.6-5.5c-1.8-4.6-4.3-9.6-4.4-14.6c-0.1-6.5,7.9-0.8,10,1.4
		C1174.4,784.8,1180.1,793.7,1175.4,799.1"/>
	<g id="_x31_892E279">
		<path id="A892E279" class="st0" d="M646.8,621.8c2.1-3.7,4.5-10.9,1.7-14.8c-2.4-3.4-6.2-10.2-9.4-12.8c6.4,0.3,21.3-8.5,14-14.5
			c-7-5.9,13.7-9.4,5.3-17.3c-2.8-2.6,0.8-8.5,1.7-11.1c1.7-5-3.8-10.3-0.9-15.1c6.6-11,20-0.5,28-3.2c6.6-2.2,13.3-3.5,19.9-0.5
			c6.6,3,13.2,3.4,19.5,6.1c5.8,2.4,8.8,4.9,15.6,5c6.9,0.1,7.9-1,8.7,5.6c1.4,11.8,7.6,13.3,20.2,10.5c4.6-1,10.6-2.4,14.7,0.5
			c-1.9,5.4-7.6,5.4-13.2,4.7c-5.5-0.8-17.6,2.5-7.1,5c4.4,1.1,22.1,6.8,26,5.2c11.4-4.5,18.4,7.8,25.6,13.3
			c14.2,10.9-8.2,16.2-11,20.7c-4.7,7.7-6.5,0.2-10.6-3.2c-3.9-3.3-8.2-1.1-13-2c-3.3-1-6.8-1.6-10.3-2c-4.1,0-8,3.1-12,0.9
			c-17.1-9-21.5,7.8-34.6,9.8c-3.1,0.5-13.5,2.2-16.2,0.3c-3.8-2.6,0.4-8.4-5.3-10.7c-2.4,4.6-8.7,4.1-12.3,7.5
			c-3.1,2.9-7.5-1.7-9.1,2.1c-5,12.4-11.3,20.7-21.3,31c-2-3.8-7.6-5.5-8.6-9.7C652,629.1,651.6,624.3,646.8,621.8"/>
		<path id="D892E279" class="st0" d="M807.5,618.6c-3.4-0.3-6.6-1.3-9.6-2.8C801.1,615.1,806.4,615,807.5,618.6"/>
	</g>
	<g id="_x31_992E279">
		<path id="B992E279" class="st0" d="M20.4,434.5c9.2-2.8,19-10.1,29.3-5.7c3.4-6.4-6-11.8,0.6-18.1c5.4-5.1,14-12.8,20.7-16.5
			c7.9-4.4,18.1-6.1,27-8.6c7.6-2.1,14.6-6.4,22.8-6.2c17.2,0.3,31.5-7.1,48.5-8.1c7.9-0.5,17.4-1,24.8,1.7c1.7,0.6,3.8,1.7,3.8,3.5
			c6.2-2.5,13.1-3.3,19.2-6.1c-10,2.2,0.9,6.9,6.3,5.3c5-1.5,20-1.7,21.7,0.7c2.7,3.8,10.1,9.3,15.9,7.9c6.8-1.7,15.9,4.9,21.8,0.7
			c-1.4,1.4-2.7,2.9-3.8,4.5c11,2.4,8.9,6.8,16.5,13.1c10,8.3,14.5,6.2,27.6,7.3c12.5,1,17.4,5.7,27.4,10.8
			c3.8,1.9,9.2,1.5,11.8,5.1c2.4,3.4,5.5,9.4,10.8,4.6c-2,5,2.8,8.4,8.2,8.8c6.3,0.5,8.3,5.2,13.8,7c-2.3-3.9-3.9-8.9-9.6-10.1
			c5.2,1,21.9,6.5,19.2,13c-3.4-0.4-6.8-1.1-10.1-2c2.4,2.6,3.3,5.4,5.3,8.1c7.3-10.6,9.6,1.5,18.2,1.6c-1.2,1.4-2.5,2.8-3.8,4.1
			c3.2-1.6,6.5-2,10.1-1.2c-0.7,1.5-1.3,3-1.9,4.5c3.6,0.6,6.8,2,9.6,4.1c-0.7-11,17.8,1.8,21.5,4c4.9,2.9,9.4-0.6,14.6-1
			c8.5-0.7,11.6,9.3,2.2,10.4c1.8,0.8,3.5,1.6,5.3,2.4c-4,1.1-7.6,3.3-10.1,6.1c13.7,2.5,36.9-1.7,47.8,6.2
			c9.2,6.7,11.7,13.8,24.5,15.3c15.2,1.8-4.9,10.7-11.1,11.4c-1.9,0.2-34.5,7.5-35.1,6.6c0.2-1.4,1.1-2.6,2.7-3.4
			c-6,0-5.7,6.5-16,5.6c-11-0.9-21.2-4.2-32.4-4.6c-27.9-1-56,7.9-84,7.1c0.4-12.5,18.8-15.5,28.4-21.6c5.7-3.6,9.2-7,3.6-10.8
			c-4.2-2.9,1.7-12.1-8.4-10c-18.8,3.9-37.8,1-48.5-13.7c-3.9-5.3-3.2-12.2-4.3-18.1c-0.5-2.7-1.3-5.6-3.4-7.8
			c-2.5-2.6-8.1-1.5-2.5-3.9c-8.6-3.5-17.1,1.9-25.4,2.6c-8.6,0.7-16-6.1-23.9-7.3c-7.8-1.2-12.5-0.1-16.7-4.4
			c-6.7-6.8-15.6-6.4-16.9-17.3c-1.5,9.1-34,6.4-34.5-5.7c-1.9,2.6-2.9,5.5-2.9,8.5c-2.9-0.1-5.2-1.1-6.8-3.1
			c-4.1-3.5-10.6-2.2-15.8-2.2c-8.4,0-15.7-4.2-21.6-8.9c4.5-4.2,13.1-2,18.8-2.8c8.5-1.2,8-8.5,0.5-10.6
			c-14.6-4.2-42.2-4.6-55.4,2.8c-8.2,4.6-17.5,9.6-24,15.8c-6.1,5.8-10.5,1.4-17.8,4c-4.2,1.5-8.6-0.8-12.6,1.3
			c-4.2,2.1-2.8,5.6-6,8.3c-6.7,5.7-17.5,5.1-24.5,10.5c2-16.4-20.7,4.2-23-6.5C19.1,433.7,19.7,434.1,20.4,434.5"/>
		<path id="F992E279" class="st0" d="M115.8,456.4c-5.1-1-10.8-2.7-12-7.7c10.3,9.3,6-7.2,6.1-9.9c0.2-5.7,10.5-8,15.5-6
			c5.3,2.1,9.3,10.3,9.2,15C134.4,454.2,121,455.1,115.8,456.4"/>
		<path id="_x32_A92E279" class="st0" d="M261.6,382.2c-1.8-0.3-3.5-0.5-5.3-0.8c1.6-0.9,3.4-1.6,5.3-2
			C261.6,380.3,261.6,381.2,261.6,382.2"/>
		<path id="_x34_A92E279" class="st0" d="M336.5,501.4c-1.8-1.3-3.6-2.6-5.3-4.1C335.5,497.2,335.3,498.6,336.5,501.4"/>
		<path id="_x37_A92E279" class="st0" d="M347,408.5c-3.3-1-6.5-2.2-9.6-3.7c5.4-2.1,15.3-5.4,17.3,2
			C352.1,407.4,349.5,407.9,347,408.5"/>
		<path id="AA92E279" class="st0" d="M365.7,415.8c-4.3-2.1-10.7-2.3-12-7.3C361.3,404.8,363.1,411.5,365.7,415.8"/>
		<path id="DA92E279" class="st0" d="M372.4,423.9c-5.5-0.7-8.8-5.7-5.3-9.7C368.7,416.6,374.3,420.6,372.4,423.9"/>
		<path id="_x30_B92E279" class="st0" d="M378.7,433.3c-3.2-2.2-6.4-4.3-9.6-6.5C375.9,421.5,389.4,427.3,378.7,433.3"/>
	</g>
	<path id="_x33_E92E279" class="st0" d="M937.5,970.6c-1.6-0.4-3.2-0.8-4.8-1.2c1.4-1.3,3-2.4,4.8-3.2
		C939.6,968,939.6,969.4,937.5,970.6"/>
	<path id="_x36_E92E279" class="st0" d="M999.3,971.9c-1.2-3-23.9-7.3-12.1-10.4c6.2-1.7,6.5,3.9,10.2,3.5c6.1-0.7,7.1-6.8,12.5-8.5
		C1013.1,967.3,1011.7,966.2,999.3,971.9"/>
	<path id="_x39_E92E279" class="st0" d="M1063.1,990.1c2.6,2.6,4.7,5.4,6.3,8.5C1066.3,996.8,1063.1,993.5,1063.1,990.1"/>
	<g id="_x39_6A2E279">
		<path id="_x30_7A2E279" class="st0" d="M533.6,592.6c11.4,4,15.3,2.6,26.4,2.8c-13.2,1.4,6,4.2,9.1,4.5c7.4,0.8,14.7,0.9,22.1,2
			c10.2,1.4,8.2-2,16.4-4.4c5.2-1.5,13.5,1.8,14.3-3.8c1.4-9.8-20.4-12.9-17.4-25.6c3-12.5,5.2-20.6-13.8-23.9
			c-7.5-1.3-25.3-0.6-10.3-9.5c17.3-10.3,30.5-3.5,47.7,0.8c11.4,2.8,31.7-1.3,32.6,12.4c0.3,4.5-4.7,10.8-1,15.9
			c4.1,5.5-6.6,9.3-7.7,12.6c-0.8,2.3,3.8,2.7,3.1,7.4c-0.9,6.3-8.6,10.7-16,10.3c8.5,6.3,15,18.4,7.7,27.6
			c-10.2-12.1-28.1-10.5-43.2-7.3c-14.4,3.1-48-11.6-57,2.4c-6.8,10.7-15.1-7.1-25.5-8.6C504.4,606,521.7,586,533.6,592.6"/>
		<path id="_x33_7A2E279" class="st0" d="M555.7,621c-1.8-0.4-3.5-0.8-5.3-1.2C554.1,618.6,553.2,619.9,555.7,621"/>
		<path id="_x35_7A2E279" class="st0" d="M598.3,589.8C597,589,569.2,579,579,577.3C585.3,576.2,603.4,582.3,598.3,589.8"/>
		<path id="_x38_7A2E279" class="st0" d="M611.3,526.1c-1.6-0.4-3.2-0.8-4.8-1.2c3.7-2.7,8.6-1.8,11.5,1.2
			C615.8,526.1,613.5,526.1,611.3,526.1"/>
	</g>
	<path id="B9A2E279_2_" class="st0" d="M-52,798.3c-1,1.6,1.4,4.3-0.4,5.4"/>
	<path id="_x30_0D2E279" class="st0" d="M296.2,120.6c-0.2,1.4-0.3,2.7-0.5,4.1c-1.5-5.4-2.6-11.5,1.9-16.2
		C301,112.4,297.4,116.6,296.2,120.6"/>
	<path id="_x34_0D2E279" class="st0" d="M301.5,144.1c2.9,9.4,4.9,19.5,4.3,29.2C303.7,163.7,300.7,153.9,301.5,144.1"/>
	<path id="_x37_0D2E279" class="st0" d="M281.3,266.6c-5.3,6-11.3,11.5-17.7,16.6C269.5,278.7,272.5,267.7,281.3,266.6"/>
	<path id="B0D2E279" class="st0" d="M198.8,194.8c-0.3,1.4-0.6,2.7-1,4.1C198,197.5,198.4,196.1,198.8,194.8"/>
	<path id="F0D2E279" class="st0" d="M199.8,208.6c1.6,1.1,3.2,2.2,4.8,3.2C202.5,212.1,197.2,208.6,199.8,208.6"/>
	<path id="_x32_1D2E279" class="st0" d="M203.6,209.4c-0.2-2.9-0.7-5.7-1.4-8.5C204.5,203.5,205,206.4,203.6,209.4"/>
	<path id="_x36_1D2E279" class="st0" d="M211.8,206.9c1.8-3.7,5.5-6.5,10.1-7.7C218,201.4,215.5,204.7,211.8,206.9"/>
	<path id="D8D2E279" class="st0" d="M382,272.6c6.2,4.6,10.5-0.6,11,8.6c0.4,6.7,8.5,12.5,7,19.3c-1.8,8.4-23.4,22-20.9,7.4
		c-5.9,1.5-11.1-2.1-13.9-6.1c3.5-3.3,7.1-2.7,8.6,1.6c4.6-4.6-2.5-7.4,2.2-11.7C382.4,286,381.4,279.9,382,272.6"/>
	<path id="_x30_9D2E279" class="st0" d="M385.4,324.2c-1.6-3,0-4,4.8-2.8C388.6,322.3,387,323.2,385.4,324.2"/>
	<path id="_x33_9D2E279" class="st0" d="M371,209.8c-3.7-1.3-6.8-3.9-8.6-6.9c7.2,6.6,11-0.8,17-3.9c8.9-4.6,22.8,3.2,33.9-3
		C414.7,203.5,377,207.8,371,209.8"/>
	<path id="_x36_9D2E279" class="st0" d="M395.9,344.8c-1.8-0.4-3.5-0.8-5.3-1.2c4-0.1,7.4-1.5,10.1-4.1c-7.9,4.7-10-2.8-11.6-7.9
		c-0.6-1.8-1.3-4.4-3.2-5.5c4.9-3,8.5-7.5,14.4-9.3c-0.2,4.7-6.7,7.2-4.8,12.2c3.1-2.2,5.1-4.9,6.2-8.1
		C409.7,327.4,405.1,340.8,395.9,344.8"/>
	<path id="_x38_9D2E279" class="st0" d="M416.6,283.2c-0.3-5.8,6.9-4.7,11-3.2C424.1,281.4,420.4,282.5,416.6,283.2"/>
	<path id="F9D2E279" class="st0" d="M438.2,239.8c-1.1-3.1-3.9-5.6-7.7-6.5c5.4-3.7,9.3-8.8,12.1-14.1c1.4-2.8,2.6-5.7,3.5-8.6
		c2.3-7.4-0.8-3-5.4-7.5c-7.4-7.3-11.9-17.2-27-12.7c14.7-7.3,26.2,5.8,34.1,14.2c5.8,6.2,5,10.7-1.1,16.5
		C441,226.3,442.5,234,438.2,239.8"/>
	<path id="_x38_BD2E279" class="st0" d="M572.9,481.5c-4.5-6.4,6.4-12.3,12.4-13.7c4.1-0.9,5.2,1.3,8.7,1.9c5.9,1,10.4-5.7,14.4-8.1
		c-1.1,5.2-3,11.8-7.8,15.5C593.8,482.3,581.1,478.8,572.9,481.5"/>
	<path id="ABD2E279" class="st0" d="M607.9,456.4c-1-3.4,0.5-5.3,4.8-4.5C611.3,453.5,609.7,455,607.9,456.4"/>
	<path id="_x32_0E2E279" class="st0" d="M316.8,610.9c13.3-14.9,38-12.5,57.1-9.3c11.7,2,20.8,7.9,31.9,10.8
		c11.5,3,12.2,7.3,18,15.6c-5.1,2-10.6,2.4-16.1,2.4c-5.1,0-7.7-4.5-13.1-3.6c7.1-1-1.7-2.2-3.7-0.7c-2.1,1.6-3.9,4.7-7.1,4.8
		c-6.2,0.2-14.2-0.7-8.9,6.9c-6.4,0.1-7.2-6.5-13.2-6c-5.8,0.5-15.9-0.1-19.1-5c-2-3-5.2-5.9-8-8.5
		C329.9,613.8,320.5,616.4,316.8,610.9"/>
	<path id="E0E2E279" class="st0" d="M938.4,625.5c-16.2-1-37,3.8-52.4-0.1c-3.5-0.9-11.1,1.4-8.8-5.6c1.3-1.9,2.2-3.9,2.7-6.1
		c-0.3-3.4-5.4-4.8-4.8-8.5c2-13,51.6-5.3,59.6-2.9c6.4,2,21.6-2.2,21.5,7.3C956.1,615.2,943.9,623.8,938.4,625.5"/>
	<path id="C1E2E279" class="st0" d="M1105.3,1011.6c5.6-7.1,20.7-6.3,24.1-14.7c2.1-5.1,0.8-17-8.3-16.5c6.4-5.5,17.3-6.6,25.9-7.2
		c17.5-1.4,2.7,7.9,3.8,16.6c1,8,6.9,15.4-5.4,19.2C1132.5,1013,1118.3,1007.3,1105.3,1011.6"/>
	<path id="F1E2E279" class="st0" d="M1165.3,958.1c1-5.1,6.4-8.2,12-9.3C1177.7,954.2,1169.3,955.6,1165.3,958.1"/>
	<path id="E2E2E279" class="st0" d="M1085.3,621c-0.9,2.2-1.4,0.7-1.9,1.3c-0.3,0.5-1.3-0.4-1.9-0.7c-0.6-0.3,0.1-0.6-0.3-1"/>
	<path id="_x31_3E2E279" class="st0" d="M766.7,914.3c-8.2-1.7-19.5-7.7-19.7-15.8C751.5,899,765.5,910.6,766.7,914.3"/>
	<path id="_x34_3E2E279" class="st0" d="M791.6,915.1c-1.1-2.3,0.5-8.3-3-9.5c-3-1-4.3-0.7-3.2-4.3
		C791.7,905.3,799.5,908.3,791.6,915.1"/>
	<path id="_x31_4E2E279" class="st0" d="M1153.8,760.2c-0.7-6.4-7.2-14.3-3.3-20.7C1160.5,741.7,1165.8,757,1153.8,760.2"/>
	<path id="E4E2E279" class="st0" d="M1144.2,673c-6.3,0.2-8.3-7.5-1.4-8.1C1149,664.3,1146.6,670.8,1144.2,673"/>
	<path id="_x30_5E2E279" class="st0" d="M1147.1,646.2c-3.9-0.6-6.1-3.2-5.8-6.5C1146.9,638,1148.7,642.5,1147.1,646.2"/>
	<path id="D5E2E279" class="st0" d="M1236.8,864.8c-6.4-2.3-5.3-7.4-5.3-12.2C1236.9,854.3,1246.6,861.8,1236.8,864.8"/>
	<path id="C7E2E279" class="st0" d="M1153.3,861.1c-6.8-3.5-2.1-8.9,1.5-12.6C1158.3,852.7,1156.6,857.4,1153.3,861.1"/>
	<path id="_x37_8E2E279" class="st0" d="M1167.7,832.8c-9.3-3.1-4.4-11.2,0-15.8C1174.5,820,1172.2,829,1167.7,832.8"/>
	<path id="_x35_9E2E279" class="st0" d="M960.5,619.4c2.2-2.7,5.7-4.3,9.6-3.3C967.5,618.4,964.3,619.5,960.5,619.4"/>
	<path id="_x35_AE2E279" class="st0" d="M1123.1,915.9c-5.1-4.1-0.8-9.4,4.3-11.4C1129.3,908.8,1127.8,913.5,1123.1,915.9"/>
	<path id="_x31_BE2E279" class="st0" d="M173.9,559c4.9,0.3,9.6-0.9,14.4-1.2c-4.3,2.5-9.4,4.7-14.9,4.1
		C173.5,560.9,173.7,559.9,173.9,559"/>
	<path id="FBE2E279" class="st0" d="M1099.1,662c-3.3-2.4-6.5-5-9.6-7.7C1095.2,652,1099.4,657.9,1099.1,662"/>
	<path id="_x32_CE2E279" class="st0" d="M1102,668.1c-0.3-1.5-0.7-3-1-4.5C1103.4,665.6,1103.5,666.1,1102,668.1"/>
	<path id="FCE2E279" class="st0" d="M1117.2,688.9c-0.3-1.5,0.7-0.9,0.4-2.3c1.2,1,1.7,1.5,1.8,2.1s-0.3,0.9-1.1,1.9"/>
	<path id="BDE2E279" class="st0" d="M1092.6,627.3c-1.7,0-3.4,0.1-5.2,0.1C1090.5,629.3,1090.1,627.9,1092.6,627.3"/>
	<path id="_x32_FE2E279" class="st0" d="M705.3,892.4c-0.8-1.4-1.6-2.7-2.4-4.1c5.3-1.8,7.5,4.7,8.2,7.7
		C709,895,707.1,893.8,705.3,892.4"/>
	<path id="F0F2E279" class="st0" d="M1079,615.8c3.1-1.9,6.3-3.7,9.6-5.3C1086.3,613.2,1082.9,615.3,1079,615.8"/>
	<path id="A1F2E279" class="st0" d="M1082.2,620.8c4-3.8,4-1.9,3.1,0.2"/>
	<path id="E437228F" class="st0" d="M690.4,938.1c-0.5-7.4-0.7-28.1,5.8-31c3.1-1.4,8.8-1.9,14.1,2c3.5,2.5,3.8,8.2,4.6,13.2
		c0.6,4.3,0.5,13.7,0.3,13.6C706.5,931,690.4,938.4,690.4,938.1z"/>
</g>
</svg>
