<?xml version="1.0" encoding="utf-8"?>
<!-- Generator: Adobe Illustrator 22.1.0, SVG Export Plug-In . SVG Version: 6.00 Build 0)  -->
<svg version="1.1" id="Europe_second_attempt" xmlns="http://www.w3.org/2000/svg" xmlns:xlink="http://www.w3.org/1999/xlink"
	 x="0px" y="0px" viewBox="0 0 1200 1120" style="enable-background:new 0 0 1200 1120;" xml:space="preserve">
<style type="text/css">
	.st0{fill:#FFFFFF;}
</style>
<path class="st0" d="M87,605.4c-0.3-2.7-0.6-5.4-0.9-8C72.4,605.1,87,616.1,87,605.4z"/>
<path class="st0" d="M77.5,580.9c3.8-3.4,7.7-3.1,10.2-7.7c-1.9,10.9-8.1,33.4,8.8,16.5c0.8,11.3-10.4,29.5-3.4,36.1
	c7.3,6.9,19.9-6.8,26.6-2.3c0,6.4-3,11.2-2.7,17.9c0.7,15.5,11,11.3-1.8,23.1c-3.6,3.3-28.9,8.7-9,14.4c0.5,12.2-21.6,16-16.5,25.8
	c3.5,6.8,31.4,4.5,37.3,5.6c-6.4,9.5-22.3,9.9-32,19.3c-5,4.8-9.1,10.2-14.6,14.3c8.2,10,21.9-6.8,35.2-0.2
	c-0.5-13.6,11.4-12.3,21.6-13.3c23.3-2.3,39.1-2.8,58.8-16.2c-5.3-1.7-12.3-0.9-17.1-3c19.7-12.3,18.3-53.9-5.8-34.9
	c4.4-17.4-14.6-35-22.5-49.5c-5.7-10.6-5.3-25.9-17.8-32.4c-4.1-2.1-18.2-1.7-19.7-4c6,1,11.6,0.8,17.5-0.6
	c-10.3-10.9,4.5-16.3,6.9-28.2c5.4-27-11.6-9-25.7-18.4c-12.4-8.2,5.3-7.1,9.3-16.9c8.3-20.4-16.1-4.8-28.6-11.7
	c3.4,14.7-8.8,9.7-2.1,23.1C78.7,537.7,73.5,572.7,77.5,580.9z"/>
<path class="st0" d="M54.1,699.5c5.1-4.5,17-3.4,19.2-5.7c7.6-7.8,5.1-21,5.9-31.3c0.5-6.9,2-11.9,2.6-16.8c1-8.2,4.7-14.2,0-23.9
	c-5.2-10.8-13-13.3-25-11.1c-5.7,1-29.7,14.6-12.8,19.3c-4.4,11.5-12.1,2.3-20.2,6.2c-15.4,7.6-3.5,4.4-4.2,13.5
	c-0.8,11.6-7.5,16.9,13.4,16.2c2.3,4.7-13.8,23.8-22,24.4C15,719.7,35.5,711.4,54.1,699.5z"/>
<path class="st0" d="M312.5,952.2c-3.6-9.8-5.6-2.4-12,0.2c-14.1,5.7-6.8,4.3-7,18.8c-0.1,10.4-3.8,16.8,5.3,23.4
	c4,2.9,7.7-9.1,14.7-0.5C316,982.1,317.9,963.3,312.5,952.2z"/>
<path class="st0" d="M1178.1,147.6c-20.2-18-110-81.8-103.5-21.8c0.9,8.1,7.8,12.6,4.7,21.3c0.8-2.3-17.4,18.2-15,17.5
	c-11,3.3,5.7-30-19.4-26.9c-2.9,2.9-11.5,18.4-14.6,19.6c-7.9,3.1-17-5.3-25.5-2.1c-7.1,2.7-9.1,14-15.3,16.7
	c-4,1.8-11.8-1.1-16.7-1.1c8.1-6.5,10.2-35.6-1.7-29.6c-7.1,6.3-7.3,15.9-13.7,22.3c-0.9-3.7-2.4-8.2-3-11.8
	c-21.5,14.1-51.3,33.5-67.9,55.8c-6.6,8.9-6.3,19.3-22.1,17.1c-6.2-0.8-17.9-8.4-17-15.6c1.3-10.2,17.9-10.8,20.9-18.7
	c4.1-10.7-8.3-26.8-16.5-31.3c-3.2-1.8-15.6-4.6-18.6-3.6c-14.2,4.7-3.5,12.7-3.3,26.2c0.1,8.8-5.3,15.1-5.8,23.5
	c-0.6,9.7,5.1,14.5,6.5,23.1c1.5,9.1,0.7,19.5-3,27.9c-22-20.5-23.6-13.3-42.6,4.7c-21.8,20.7-22,22.9-11.2,52.5
	c-14-0.2-44-25.9-53.8-20.3c-25.2,14.3,17.6,31.2,18.6,37c4.2,24.6-22.2-0.8-27.2-4c-22.2-14.3-19.1-21.9-20.9-48.6
	c-0.9-13.8-0.7-16.2-9.3-27.5c-3-3.9-24.6-27.4-25.4-27.4c4.7-4.1,20.9,12.8,28.6,16.9c21.6,11.6,55.6,29.5,79.1,18.3
	c23.6-11.3,30.8-29.1,24-53.3c-5.1-18.1-12.3-19.7-29.6-31.6c-20.9-14.4-56.4-69.9-86.1-45.7c-2.5-10.3-11-8.6-15-16
	c-3-5.6-3.7-14.6-4.6-20.8c-5.1,3.7-13.9,9.6-18.9,10.3c-3.6,0.5-16.5-1.4-19.4-3.4c-11.9-8.1-6.8-7.9-0.3-13.6
	c12.9-11.3,28-2.9,6.2-21.5c-16.3-13.8-21.9-17.1-27.8,6.3c-3.3-8.7,7-27-5.2-29c-5.8-0.9-17.5,26-17.5,30
	c-3.2-8.1-1.1-20.5-1.1-29.3c-9.2,12.5-14.3,27.9-21.2,41.7c-4.5-6.7,5.3-33.4,10.8-38.2c-11-0.8-17.6,9.4-23.8,17.2
	c-4.1,5.1-9.7,20.7-12.7,22.9c-9.8,7.1-6.4-3.9-12.8-1.7c-6.6,2.2-11.2,1.7-8.8,15.2c-15.7-11.8-16,0.8-25.3,17
	c0-7,0.2-14.1,0.2-21.1c-6.2,11.3-18.5,53.1-33.4,22.5c-2.9,12.8-25.2,39.9-17.6,49.6c-6.7,2.2-2.3,4.1-5.9,9.4
	c-1.4,2.1-2,6.7-2.9,7.8c-0.6,0.7-5.2-2.1-5.7-1.4c-2.3,3.2-6.4,12.2-7.6,13.8c1.4-1.8-6.6,8.4-6.6,8.3
	c-3.6,5.6-11.7,11.9-16.2,19.4c-4.6,7.7-10.4,14-13.5,22.7c-1.3,3.6,4,4,3.8,4.4c-2.4,6.1-7.9,10.1-10.6,15.9
	c-4.5,9.7-1.5,19.2-4.7,28.9c-4,12.2-17.4,22-25.5,31.7c-19.6,23.4-23.8,49.8-58,49.8c1,1,7.9,8.9,7.3,10.8
	c0-2.4-39.7,14.1-23.5,26.9c-12,1.7-11.5,22.9-10.3,31.8c1.5,10.8,11.8,12.2-3.5,23.6c4.1-1,12.9,1.3,16.1-1.8
	c-1.8,2.3-7.5,11.8-2.4,13.5c-11,3.9-10.7,19,2.6,15.6c-3,2.8-3.2,5.6,1.1,7c-20.3,0,0.4,19.7,6.9,23.7c17.2,10.6,27.7,5.4,40.3-9
	c6.7-7.6,21.8-20.5,21.8-28.8c0.5,2.7,0.6,14.3,6.8,8c1.6,17.1,7.6,31,12.2,47.9c2,7.3,6.6,15.6,8.2,22.5c0.7,3.2,5.1,4.8,5.4,8.3
	c0.5,5.7-6.4,6-2.8,13.2c-7.7,1.8-8.5,0-8.5,8.2c-1.6-3-4.9-6-6.5-9.3c-5.9,11-10.6,21.4,2.4,27.2c12.2,5.4,15.7-10.2,13.1-24.6
	c4.2,8.5,7,26.5,23.7,17.2c8-4.4,2.8-12.9,9.9-18.4c6.6-5.1,11.5,3.6,19.2-6.1c9.5-11.9,6-36.7,8.4-50.4
	c3.1-17.9,31.1-32.6,0.2-44.6c8.1,0.4,13.8,6.8,21.9,4.4c-15.4,11,5.6,28,9.6-2.3c-1.7,0-3.3,0-5,0c22.8-11.9-16-44.2-16.8-62.2
	c-1.4-31.4,16.9-49.2,35.7-69c13.1-13.9,18.3-28.1,22.2-41.4c1.8-6.1,14.6-52.5,22.6-52.5c4.3,0,9.6,10.4,20.2,8.3
	c40.7,13.5-1.5,56.3-19.1,75.3c-0.7-1.6-1.4-3.2-2.1-4.9c-4.2,7.2-7.3,16.4-10.5,21.7c-0.6,1-6.5,4.8-8.6,8.3
	c-5.2,8.8-3.5,21.7-2.6,31.4c1.3,13.9,3.3,73,24.5,58.9c3.5,30.8,35-2.9,44.5,7c7.1-17.1,25.2-6.7,37.8-16.2
	c0,3.6-1.5,10.9,0.9,13.4c7.6,1.9,18.4,0.8,25.2,5.6c-13.2,3.3-30.6,0.3-36.6,15.6c-14.9,2.5-28.1-6.8-45.4-0.5
	c-19.3,7.1-26.6,28.9-5.8,40.7c1-1.8,1.9-3.6,2.9-5.5c6.2,12.4-0.6,47.6-17.6,35.1c-12.9-9.6-11.2-30.2-27.2-2.6
	c-10.6,18.3-2.2,29.1-4.2,46.4c-1.6,13.8-6.6,9-12.1,16.7c-4,5.6-12.6,2-4.5,14.3c-19.9,11.9-20.8-14.4-41.7-7.9
	c-7.7,2.4-42.1,24.8-41.6,26.4c0,0.6-14.2-12.7-17.5-14c-12.2-4.6-21,5.4-33.8,6.8c0.8-2.3,4.4-6.6,5.9-8.3
	c-43.2,0.6-20.6-57.9,7.3-59.9c-4.4-0.2-10.8,0.3-14.9-1.2c-14.4-5.3-2.8-5.4-12-14c9-1.6,9.9-24.2,15.3-33.4
	c-10.2,8.2-20.1,17.2-29.8,25.3c-5.7,4.7-8.1-0.1-12.3,8.4c-3.4,6.7,1.1,15.9,8.8,6.7c-0.3,2.7-2.1,6-2.7,8.6
	c-15-14-6.8,26.3-6.1,29.9c2.2,10.3,16.4,30.6-4.2,31.4c10.4,0.4,17.7,7.5,8.6,16.5c-3.6,3.5-13.1,0-20.3,0.5
	c-10.3,0.7-22.1,6.3-26.3,15.2c-1,2.2,6.8,22.2-4.1,19.5c-2.4-3.2,0.3-13.7,0-18.2c-8.2,4-6.9,9.9-10.9,17.5
	c-1.6,3-10.6,22.4-10.8,22.5c-4.3,3.3-14.2,2-19,4.1c-14.9,6.6-10.6,9.8-18.6,21.3c-6.8,9.7-16.3,24.7-28.9,23.2
	c-5.5-0.7-3.6-9.8-10.4-9.3c-14.8,0.9-0.9,11.5-4.1,19.9c-6.4,17.3-28-8.9-42.7,6.1c-1.7,1.8-6.7,18.7-5.6,20.2
	c6,8.7,29.2,9.6,37.8,17.8c10.4,9.8,16.8,23.3,20.2,36.8c-8.4-5-9.9,41.8-15.6,45.8c-10.9,7.9-52.1,1.1-65.6-1
	c-10.4-1.6-39.6-5.3-42.7,9.1c-1,4.7,7.9,19.2,8.6,25.3c1.1,9.3-2.3,20.9-4,30.4c-4.2,23.1-3,31.5,2.3,52.9c1.3,5.1-0.4,17.5,3,20.3
	c4.9,3.9,17.4-2.5,23.2-0.2c10.4,4.2,12.3,15.9,27.1,15c5.9-0.3,29.2-6.2,36-8.3c9.4-3,23.2-10.8,30.5-17.6
	c7.6-7.1,7.1-20.2,19.6-26.4c-25.3-17.1,15-44.1,26.7-51.8c13-8.5,10.4-7.3,14.4-20c3-9.5-1.5-20.2,15.3-23.7
	c8-1.7,17.8,7.2,25.9,6.4c14-1.3,20.8-12.5,30.3-20.6c23-19.6,30.3,7.4,46,28.6c12.1,16.3,28.6,24.5,44.6,36.2
	c11.9,8.7,28.6,22.2,28.9,38.8c0.1,7.2-7.8,2.2-5.4,15c3.7,20.1,23.7-8.5,24.6-16c0.7-5.3-16.9-22.8-2.1-25.3
	c4.9-0.8,14,8.5,19.7,9.7c4.4-17.4-34.9-37.3-46.5-46.4C377.5,913,353,883,353,855.8c7.7-0.2,15.5-2.6,22.9-4.6
	c-6.2,5.8-6.1,13.6,1.2,18.4c5,3.2,4.7-10.5,7.7-10.5c3.9,0,9.4,18.5,11.2,21.9c-8.2,6,34.7,29.6,44.6,38.6
	c7.4,6.7,16,10.2,19.7,19.8c3.5,8.9,2.3,24.9,4.7,34.7c1.2,5.1,5.2,8,3.3,15.4l1.1-2.4c1.9,5.2,9.9,5.4,14.3,4.7
	c0,13.4-5.9,5.5,8.8,14.2c-2.9-1.7,24.7,8.3,17.1,8.3c-8.1,0-16.6-13-23-2.5c-1.4,2.2,2.3,18.9,3.8,21c7.8,11.8,32.2,14.3,22.5-7.9
	c3.2,2.1,7.3,2.5,11.1,1.7c-2.2-1.8-5.4-8.3-6.8-9.6c3.8,1.7,9.8,1,13.8,3.5c2.3-17.1-19.7-18-19.7-31.7c1.8,0.3,3.6,0.6,5.5,0.9
	c-3.1-9.5-13.6-17.2-7.4-28.5c11.1,8.3,10.3,19.9,19,10c1.6-1.8-1.6-11.8-1.8-13.7c13.8-2.5,21-3.2,34.1,2.9
	c15.6-17.7-1.2-27.4,27.5-28.2c-0.4-0.9-4.9-14.9-4.6-14.9c9.7-5.6,14.2-20,18.1-30c5.8-14.7,10.4-17.8,16.8-28.9
	c-1.4,2.3,1-13.2,0.9-13.1c4-8.4,18.3-22,28.7-20.5c-3.5,17.2,10.1,8.4,16.8,14.3c9.2,8-1.6,6.3-8.3,18.7
	c17.1,1.3,9.3,20.4,29.2,16.9c1.3-0.2,26.4-11.6,27.1-12.3c15.6-16.6-32.4-2.3-32.4-24.7c11.7,2.5,23.4-9,34.9-12.6
	c13.9-4.3,25.4-9,39.6-8.3c-8.1,8.1-33.1,6.4-13.5,21.2c-6.5,4.2-4.2,11.3-7.9,15.5c-1.9,2.2-11.9-0.4-12.4,4.1
	c-2,15.9,29.8,28.4,40.7,36.9c14.8,11.5,45.8,33.7,24.2,53.2c-8.7,7.9-31.8,5.1-43.5,7.4c-21.3,4.2-32.5,7.4-52.2-3.5
	c-9.2-5.1-17.1-12.5-27.3-16.2c-12.6-4.5-13.4-1.8-23.8-0.1c-12,2-31.9,2.2-41.7,9.8c-7.6,6-6.9,16.6-16.5,22.1
	c-5.3,3-20.2,1.4-23.7,6.2c-6.8,9.4,7.3,35.9,12.9,44c8.9,13,15.4,30,32.8,29.6c7.8-0.2,13.3-7.5,22.5-6.8
	c11.6,0.9,21.4,10.9,34,10.7c9.5-0.2,19.7-10.2,27.4-9.9c9.4,0.5,12.4,12.2,18.4,12.7c11.7,0.9,6.3-4.8,11.7-8.5
	c0.9-0.6,1.6-6.2,5.1-8c0.4-0.2,14.9,1,15.2,1c9.7,0.7,21,0.3,31.9-2.1c15-3.2,28.7-7.9,43.9-12.5c-0.6,0.7-1.1,1.4-1.7,2.1
	c8.3,0.1,20.4-3.1,22.5,6.8c8.2,1.2,2.7-3.4,2.6-4.9c3.1,0.8,12,4.1,15,2.6c13.1-8.7,42.3-13.7,51.6-24.3
	c5.1-5.8,9.5-28.8,12.6-36.7c0.1-0.3,9.3-0.4,8.6-5.4c-0.6-4.1-17.6-19.8-21.3-25.6c-2.3-3.6-3.7-8.5-6.3-13.7
	c-3.5-7.2-7.2-10.5-9.2-18c-0.5-5.8-1.2-11.5-1.9-17.3c-4.3-4.1-6.9-9-8-14.7c0.9-16.7,29.7-44.6,45.5-52.1
	c-15-13-32.9-17-28.1-43.7c3-16.8,22.6-28.5,36.9-34.9c18.2-8.2,35-9.4,47.4-27.3c10.8-15.5,15.2-42.6,6.4-60.4
	c-5.3-10.7-14.9-14.6-17.7-27.7c-5.2-23.5,5.8-25.3,20.7-38.6c25.5-22.6,31.4-53.6,38.8-85.2c4.3-18.3,5.6-36.5,8.8-54.8
	c2-11.6,9.3-21.5,10.9-32.6c2.5-16.3-14.5-34.2-6.9-49.5c6.3-12.8,28.3-17.5,39.6-24.3c44.7-26.9,60.6-70.4,84-113.6
	C1176.9,206.6,1199.6,172.6,1178.1,147.6z"/>
<path class="st0" d="M493.4,368v-0.2C493.4,367.9,493.4,367.9,493.4,368z"/>
<path class="st0" d="M306,571.9c-5.8-6.8-0.3-10.5,8.8-9.9C311.7,563.7,308.3,575.3,306,571.9z"/>
<path class="st0" d="M667.3,1061c-10.4-3.1-29.4,25.4,0,18.3c13.2-3.2,15.3-14.2,23.1-24.2C682.4,1057.9,675.4,1061.2,667.3,1061z"
	/>
<path class="st0" d="M308.9,906.4c-1.2,1.2-13.2,9.6-14.1,12.3c-2,6.1,1.5,28.9,11.8,26.5c12.8-3,6.6-36.8,4.9-44.4L308.9,906.4z"/>
<path class="st0" d="M387.9,1009.6c-7.2,1.5-43.4-6.7-30.8,13.6c0.8,1.3,29.1,16.1,30.5,15.9c14.3-2.3,7.5-18.2,14.3-30.5
	C397.3,1008.8,392.4,1008.9,387.9,1009.6z"/>
<path class="st0" d="M552.6,1064.6c-9.6-0.5-46-11.3-26.4,5.3c16.3,13.8,42.8-3.8,57.4-12.4C573.8,1060.7,562.8,1067,552.6,1064.6z"
	/>
</svg>
